#!OML:ASF E:/inclinewalkrobotboard/Project1/Captureday1/Session1/subject1.ASF
:FULLY-SPECIFIED
:DEGREES
238
root 0 0 0 -1.8077669984900222 -5.340573794660084 -7.261686593234069
lowerback 10.130127956355444 2.406874880324593 5.642644917908846
upperback 0.08715496930794892 3.9385068020612866 1.5045139040022653
thorax -5.505685291651382 1.8165950584604134 -2.155458222870898
lowerneck -15.039494834318763 -3.343846269608008 -1.0425925137665137
upperneck 17.697728498419696 -4.567011705926332 1.2705342331325613
head 8.131921718934004 -2.1354407068155536 0.07947996943155428
rclavicle -1.5644111766258623E-16 -6.118583583623982E-17
rhumerus -19.23930541215351 -6.86893061075493 -66.96057282185176
rradius 61.90413192400397
rwrist -8.598745516168186
rhand -13.182402558569981 -10.142381680883437
rfingers 7.125019999999856
rthumb 12.943812530819221 -39.35792213761901
lclavicle -8.168803861355166E-16 -3.693333104479764E-16
lhumerus -39.576634551635145 0.24613282792990146 83.28058646903817
lradius 38.2067008117904
lwrist 2.7284082695772405
lhand -19.487742821237564 1.0158652998270092
lfingers 7.125019999999879
lthumb 6.737187080813069 30.52068311010607
rfemur -5.14309996822388 4.340804457359853 19.8694580606428
rtibia 23.18664775980846
rfoot -7.913804974036112 -4.03670617292749
rtoes 1.5182077849964466
lfemur -17.48018337156862 -1.2717535269216262 -12.677676075883735
ltibia 40.145882707002016
lfoot -6.9209496574794205 -0.4133681890388212
ltoes -17.282341904954
239
root 0 0 0 -1.7652511847851922 -5.373330823689061 -7.344526186883697
lowerback 10.11100366975315 2.4534362034256714 5.6909991887259155
upperback 0.06799006192338591 4.008631987511446 1.4769044231273902
thorax -5.518167086855615 1.8471761796461856 -2.2197567414350177
lowerneck -14.88601488502918 -3.3432530786601373 -0.991260383711503
upperneck 17.531342853117167 -4.583183960246377 1.3126073499976396
head 8.05736488236457 -2.1391595649324997 0.08816411936698715
rclavicle -1.482810032653522E-16 -5.08944363503321E-17
rhumerus -19.101173034158737 -6.713026781714585 -66.81516910284626
rradius 62.36693928126732
rwrist -8.769630035437212
rhand -13.12215337904661 -10.575776902036036
rfingers 7.125019999999854
rthumb 13.003570317623048 -39.78396226691616
lclavicle -8.454087759006772E-16 -3.8236763185859097E-16
lhumerus -39.84257909447655 0.2823302273648887 83.30470819653439
lradius 38.517048199529945
lwrist 2.6078993326241497
lhand -19.223671225215863 0.21614267323531955
lfingers 7.125019999999875
lthumb 6.986915969909815 29.711478583081878
rfemur -4.519982957217622 3.9096879741014727 18.477748472649388
rtibia 22.763980587367243
rfoot -6.687570143338935 -3.505344443832942
rtoes 1.8020789675419944
lfemur -16.628273242151796 -1.5884919808252522 -12.647528210191807
ltibia 38.22338975121151
lfoot -8.281319106814626 0.6202736001469376
ltoes -19.39547074783186
240
root 0 0 0 -1.7385799477674424 -5.366573932243817 -7.352169577244503
lowerback 10.101481275505886 2.466143160978186 5.673293915506078
upperback 0.05616980675507738 4.024472716996337 1.4578413159696155
thorax -5.525673451783974 1.8533937102589229 -2.231653444898564
lowerneck -14.783780269407607 -3.3388659474220583 -0.9613201670456084
upperneck 17.41358667157484 -4.587097033154977 1.3394355814952594
head 8.01017264617267 -2.1383560641808717 0.09518157448367914
rclavicle -1.4892585892523354E-16 -4.6620251716974974E-17
rhumerus -19.101205949701928 -6.699877801750886 -66.8109616932489
rradius 62.39429193711612
rwrist -8.776378099671122
rhand -13.117286542104289 -10.610849565312357
rfingers 7.125019999999854
rthumb 13.009049606810478 -39.818375061836264
lclavicle -8.61694857598051E-16 -3.940184682874739E-16
lhumerus -40.10269381789415 0.30488953992377277 83.32990054135041
lradius 38.8524329419662
lwrist 2.491597049317838
lhand -18.95431871608309 -0.604483385553916
lfingers 7.12501999999987
lthumb 7.241965277916281 28.880193176354357
rfemur -4.333032640889586 3.382286501151691 17.025064852122846
rtibia 23.165167890886963
rfoot -5.09330956433857 -2.99697929656775
rtoes 2.325976805516467
lfemur -15.676401532061163 -1.8391027727304938 -12.806634728863449
ltibia 36.630196725463584
lfoot -9.357743640842985 1.3437851234298916
ltoes -20.83170233253346
241
root 0 0 0 -1.721341566209138 -5.3466181410242655 -7.331620163662811
lowerback 10.096503561392252 2.4654922549361094 5.634377933234133
upperback 0.04832453236532691 4.019528352629047 1.444041338989976
thorax -5.531064322217378 1.8504847391285502 -2.2237585088112795
lowerneck -14.713759148113928 -3.334102086435994 -0.9432138581269718
upperneck 17.329518592205762 -4.58675448045882 1.357646489852605
head 7.978693519320131 -2.1363819683448924 0.10078469587677891
rclavicle -1.5407033364668387E-16 -4.8290791511727036E-17
rhumerus -19.18626225529551 -6.780718353912342 -66.89741553536348
rradius 62.137100579099105
rwrist -8.67937721830717
rhand -13.149647422548806 -10.379938867599073
rfingers 7.125019999999855
rthumb 12.97788166863521 -39.59182954544864
lclavicle -8.731452558310239E-16 -4.036314341656896E-16
lhumerus -40.302259882500294 0.32027872417725073 83.34920540501318
lradius 39.1148571343067
lwrist 2.4025179456558377
lhand -18.74585936255906 -1.2405039623325127
lfingers 7.125019999999865
lthumb 7.439442538989921 28.23638654894392
rfemur -4.673530288389573 2.870719706114248 15.877816743423788
rtibia 24.439236280714624
rfoot -3.471347910264508 -2.6364605708411952
rtoes 2.987788015708696
lfemur -14.830388595402152 -2.0132721057139866 -13.047730965928341
ltibia 35.47280426523399
lfoot -10.095328955242156 1.7731855710732942
ltoes -21.632385705146536
242
root 0 0 0 -1.7088028288461872 -5.322921129875686 -7.30142746088057
lowerback 10.093422771045075 2.460289188258778 5.58960250643032
upperback 0.04229225509993062 4.007814392171397 1.4325656486980698
thorax -5.535711392528692 1.844674653058985 -2.2093351603178535
lowerneck -14.659275066551135 -3.329718854246245 -0.9305588757735933
upperneck 17.26226287737407 -4.585282107465869 1.37199832999596
head 7.954090715493669 -2.1343476850712775 0.10566683544179278
rclavicle -1.607972887671035E-16 -5.3295049196407785E-17
rhumerus -19.29862213879548 -6.895791469439724 -67.0160364398498
rradius 61.77678319825185
rwrist -8.54665261551082
rhand -13.196090492135678 -10.05026796597371
rfingers 7.125019999999857
rthumb 12.93278320932911 -39.26844982512653
lclavicle -8.796524089883946E-16 -4.0993319487503024E-16
lhumerus -40.42147116050984 0.32810728254544114 83.3607576111552
lradius 39.27456729891068
lwrist 2.349667108513098
lhand -18.620595595059243 -1.623686110628542
lfingers 7.1250199999998625
lthumb 7.558319348563302 27.849099392463934
rfemur -5.337582453519502 2.5007620648705657 15.223165937968503
rtibia 25.95835281636746
rfoot -2.264710207961499 -2.48796149143681
rtoes 3.5508234141023918
lfemur -14.090043798934602 -2.142121499466181 -13.3119647877284
ltibia 34.58203857640199
lfoot -10.631153399400123 2.04191886508566
ltoes -22.079610774381372
243
root 0 0 0 -1.697241785322191 -5.300115407400716 -7.272234874610019
lowerback 10.090649643145305 2.455233982759939 5.547045166083676
upperback 0.0365799729371884 3.9965627903811165 1.4217921545490235
thorax -5.540511548293182 1.8391678573874422 -2.1955712067723603
lowerneck -14.609183382945677 -3.325848179793756 -0.9190434764502623
upperneck 17.19864606515079 -4.584166197999688 1.3856819116731414
head 7.931150605259148 -2.1326065439311854 0.11032433089873234
rclavicle -1.6627605669804428E-16 -5.87519528036162E-17
rhumerus -19.393223583577175 -6.995503600147557 -67.11927813019824
rradius 61.46308428894435
rwrist -8.432802974316827
rhand -13.237050505849169 -9.761886132457937
rfingers 7.125019999999859
rthumb 12.893041988411674 -38.985380049929724
lclavicle -8.792918280109765E-16 -4.1243298985811625E-16
lhumerus -40.470936934636676 0.3280001712586429 83.3657794950906
lradius 39.348245331661936
lwrist 2.328493108520728
lhand -18.566669295398107 -1.790487851639547
lfingers 7.125019999999861
lthumb 7.609946512007634 27.680721155605294
rfemur -5.915405080237507 2.3631631439967187 15.046773434629166
rtibia 26.79278291610146
rfoot -1.8321876632955563 -2.530769579432113
rtoes 3.7603243369783574
lfemur -13.35534453511859 -2.2652030850909597 -13.5839519267077
ltibia 33.72201111440947
lfoot -11.143454033757088 2.288266866064016
ltoes -22.475911470876692
244
root 0 0 0 -1.6859335150477008 -5.279223210313814 -7.246850705705635
lowerback 10.087777083915935 2.4507542138778184 5.509280423713968
upperback 0.03108790093070468 3.986388561638998 1.412186738258808
thorax -5.545349846198524 1.8342732057284037 -2.183592315318063
lowerneck -14.563569882092564 -3.322368407392072 -0.908194770788891
upperneck 17.138479506964064 -4.5832317063108 1.3986116555694497
head 7.910155818320028 -2.1310224838478025 0.11460430560658602
rclavicle -1.6943172888105717E-16 -6.281190050349206E-17
rhumerus -19.45434601807448 -7.061019514252875 -67.18832360022839
rradius 61.25445472806004
rwrist -8.358239151709181
rhand -13.264560433456477 -9.56982054623706
rfingers 7.12501999999986
rthumb 12.866445053587352 -38.79665121519186
lclavicle -8.734188987883689E-16 -4.1234974804477233E-16
lhumerus -40.47326304878045 0.3222615344207546 83.36639983474855
lradius 39.364948451465665
lwrist 2.3285662642438143
lhand -18.56031838780379 -1.8126826313832183
lfingers 7.125019999999861
lthumb 7.616540057517037 27.658311283633008
rfemur -6.186359240173127 2.430810070568689 15.170058000739324
rtibia 26.60027099614488
rfoot -2.1261281366543687 -2.6865113772887255
rtoes 3.573413895306712
lfemur -12.53041592874157 -2.409849730829948 -13.871005612799609
ltibia 32.72567868357043
lfoot -11.752164064670673 2.5950049301274642
ltoes -23.005438060806117
245
root 0 0 0 -1.676483239554552 -5.2582462819643645 -7.220905036638447
lowerback 10.085321762726963 2.4444725743450224 5.473091108052076
upperback 0.026647254467410397 3.973601938165003 1.4048119159798125
thorax -5.5494591821942585 1.8283679701069109 -2.169964993891006
lowerneck -14.528103013334642 -3.3190329370989655 -0.9000227288209014
upperneck 17.089207841423132 -4.581449096781695 1.4089523674671822
head 7.893827561099329 -2.1292760390658128 0.11813931468097505
rclavicle -1.710012728512858E-16 -6.555043080441793E-17
rhumerus -19.491846531743555 -7.101603986433108 -67.23162731984401
rradius 61.12400890576656
rwrist -8.31232807688853
rhand -13.281863138540267 -9.449445897735922
rfingers 7.125019999999861
rthumb 12.849738288274104 -38.67836384483757
lclavicle -8.660385061784498E-16 -4.115632729887054E-16
lhumerus -40.449182665551795 0.31492755723989163 83.36447116893815
lradius 39.346373032404784
lwrist 2.340030405440382
lhand -18.581341698179283 -1.7507897507169776
lfingers 7.125019999999861
lthumb 7.596948373201084 27.720977442292202
rfemur -6.164874443542488 2.606823389893531 15.394584274109798
rtibia 25.65335284787069
rfoot -2.824161065474011 -2.8692840807112208
rtoes 3.1368574711092774
lfemur -11.579039562495275 -2.580109181892092 -14.1966911496965
ltibia 31.55933972539902
lfoot -12.46615859155619 2.9582917080670663
ltoes -23.642234545024436
